<svg id="visual" viewBox="0 0 540 960" width="540" height="960" xmlns="http://www.w3.org/2000/svg" xmlns:xlink="http://www.w3.org/1999/xlink" version="1.1"><rect x="0" y="0" width="540" height="960" fill="#00afff"></rect><path d="M0 682L18 663.5C36 645 72 608 108 629.2C144 650.3 180 729.7 216 741.2C252 752.7 288 696.3 324 688.7C360 681 396 722 432 721.8C468 721.7 504 680.3 522 659.7L540 639L540 961L522 961C504 961 468 961 432 961C396 961 360 961 324 961C288 961 252 961 216 961C180 961 144 961 108 961C72 961 36 961 18 961L0 961Z" fill="#FFF" stroke-linecap="round" stroke-linejoin="miter"></path></svg>