<svg id="visual" viewBox="0 0 540 960" width="540" height="960" xmlns="http://www.w3.org/2000/svg" xmlns:xlink="http://www.w3.org/1999/xlink" version="1.1"><rect x="0" y="0" width="540" height="960" fill="#FFFFFF"></rect><path d="M0 633L12.8 629.8C25.7 626.7 51.3 620.3 77 613C102.7 605.7 128.3 597.3 154 584.2C179.7 571 205.3 553 231.2 552.8C257 552.7 283 570.3 308.8 591.8C334.7 613.3 360.3 638.7 386 636.7C411.7 634.7 437.3 605.3 463 574.5C488.7 543.7 514.3 511.3 527.2 495.2L540 479L540 961L527.2 961C514.3 961 488.7 961 463 961C437.3 961 411.7 961 386 961C360.3 961 334.7 961 308.8 961C283 961 257 961 231.2 961C205.3 961 179.7 961 154 961C128.3 961 102.7 961 77 961C51.3 961 25.7 961 12.8 961L0 961Z" fill="#00afff" stroke-linecap="round" stroke-linejoin="miter"></path></svg>